<?xml version="1.0" encoding="UTF-8"?> <svg xmlns="http://www.w3.org/2000/svg" width="12" height="20" viewBox="0 0 12 20" fill="none"><path d="M2.0736 0.13147C2.30552 0.275902 2.54921 0.371979 2.71941 0.541862C5.47858 3.29467 8.22916 6.05575 10.9778 8.81874C11.2187 9.06052 11.4414 9.32234 11.6532 9.59021C11.9437 9.95702 11.9383 10.2672 11.6087 10.6028C10.8735 11.3514 10.1192 12.0802 9.37921 12.8234C8.60487 13.6012 7.84454 14.3943 7.06638 15.1687C5.86575 16.3652 4.65398 17.5499 3.44952 18.7423C3.14666 19.042 2.86225 19.3607 2.55398 19.655C2.27625 19.9203 1.94762 19.9413 1.65716 19.6979C1.27572 19.3785 0.906366 19.0391 0.569781 18.6726C0.342634 18.426 0.372538 18.1302 0.623863 17.8862C1.3772 17.1554 2.13849 16.4339 2.88579 15.6971C3.68526 14.9088 4.47137 14.1077 5.26416 13.313C6.14316 12.4315 7.02502 11.5544 7.9018 10.67C8.42258 10.146 8.41209 9.81481 7.89989 9.30453C6.13457 7.54557 4.3737 5.78152 2.61029 4.02001C2.07423 3.48491 1.54009 2.94822 0.997669 2.4198C0.351541 1.79022 0.349632 1.4934 1.00308 0.888627C1.13765 0.764237 1.25313 0.614396 1.40106 0.511003C1.59544 0.376751 1.81368 0.27622 2.0736 0.13147Z" fill="#B91F2A"></path></svg> 