<?xml version="1.0" encoding="UTF-8"?> <svg xmlns="http://www.w3.org/2000/svg" width="48" height="36" viewBox="0 0 48 36" fill="none"><g clip-path="url(#clip0_1_181)"><g clip-path="url(#clip1_1_181)"><path fill-rule="evenodd" clip-rule="evenodd" d="M43.0222 21.8778C42.2946 23.1567 41.1913 23.7704 40.0056 24.2412C37.0101 25.4285 33.9407 25.3181 30.8536 24.6742C26.7805 23.8254 23.0081 22.1396 19.2258 20.485C17.7672 19.8471 16.3292 19.1593 14.8569 18.5549C14.4707 18.3958 13.99 18.4098 13.5573 18.4314C10.9257 18.5644 8.34755 18.3818 6.26983 16.5421C4.61331 15.0751 4.25954 12.6074 5.23685 10.6677C6.24024 8.67589 8.41595 7.56528 10.6251 7.93495C11.3689 8.05966 12.1069 8.22318 12.8463 8.37302C16.2529 9.06401 17.8047 11.1895 17.4086 14.7166C25.9028 17.0918 34.4106 19.4702 43.0222 21.8778ZM9.66335 10.4772C8.24034 10.9824 7.53791 11.9307 7.53631 13.0203C7.53504 14.1271 8.28679 15.1976 9.45275 15.5409C10.2713 15.7823 11.1331 15.9319 11.9848 15.9907C13.0954 16.0674 14.1035 15.3366 14.5034 14.3154C14.9001 13.3022 14.6606 12.1601 13.7612 11.4755C12.4489 10.4772 10.9228 10.32 9.66335 10.4772ZM22.6989 17.7195C22.4558 16.989 21.6102 16.5503 20.8718 16.7721C20.0969 17.0049 19.6575 17.8703 19.919 18.6465C20.1735 19.4011 20.9774 19.8246 21.7298 19.6003C22.4934 19.3722 22.9521 18.4814 22.6989 17.7195Z" fill="#B91F2A"></path><path fill-rule="evenodd" clip-rule="evenodd" d="M25.8726 15.7954C23.959 15.2689 22.0674 14.7487 20.0813 14.2028C22.6098 9.85522 25.111 5.60973 29.5228 2.96382C30.9255 2.12267 32.4309 1.52935 34.0849 1.46382C34.6877 1.43964 35.2966 1.57326 36.0875 1.65406C32.6103 6.46774 29.2543 11.1138 25.8726 15.7954Z" fill="#B91F2A"></path><path fill-rule="evenodd" clip-rule="evenodd" d="M16.724 20.4659C18.2651 21.1127 19.6769 21.7051 21.1391 22.3181C20.8871 22.6805 20.6762 22.9836 20.4296 23.3377C21.4158 24.2807 22.159 25.3649 22.3219 26.7736C22.4816 28.1568 22.1724 29.4049 21.3115 30.4941C20.6768 31.2974 20.0177 32.0842 19.3346 32.8471C17.6148 34.7657 14.7532 35.0908 12.6497 33.6274C10.6089 32.2082 9.78553 29.3167 11.0765 27.1604C11.9202 25.7511 13.0133 24.3723 14.3053 23.3867C15.3681 22.5758 16.2942 21.8212 16.724 20.4659ZM16.9948 31.4609C18.0487 30.8412 19.0617 29.7914 19.5341 28.3283C19.8949 27.2113 19.4278 26.1115 18.4954 25.5115C17.548 24.9007 16.2554 24.9192 15.4133 25.6814C14.7611 26.2712 14.1589 26.9441 13.6569 27.665C12.9653 28.6591 13.0664 29.9807 13.7676 30.8288C14.4592 31.6652 15.6058 31.9531 16.9948 31.4609Z" fill="#B91F2A"></path></g></g><defs><clipPath id="clip0_1_181"><rect width="47.72" height="35" fill="white" transform="translate(0 0.5)"></rect></clipPath><clipPath id="clip1_1_181"><rect width="47.72" height="35" fill="white" transform="translate(0 0.5)"></rect></clipPath></defs></svg> 