<?xml version="1.0" encoding="UTF-8"?> <svg xmlns="http://www.w3.org/2000/svg" width="48" height="36" viewBox="0 0 48 36" fill="none"><g clip-path="url(#clip0_1_168)"><g clip-path="url(#clip1_1_168)"><g clip-path="url(#clip2_1_168)"><path d="M39.6525 1.19277C37.5461 1.19277 35.4397 1.19277 33.3334 1.19277C30.4441 1.19277 27.5545 1.18323 24.6655 1.18323C22.8309 1.18323 23.4795 2.97655 23.009 4.20836C21.6754 7.70051 20.3408 11.192 19.0085 14.6845C17.9761 17.3899 16.9451 20.0956 15.9162 22.8023C15.67 23.4507 15.4234 24.099 15.1775 24.7474C15.0404 25.1088 15.0025 25.6776 14.54 25.6798C13.4997 25.6852 12.4654 25.9232 11.5279 26.3733C9.76034 27.2221 8.38855 28.801 7.80382 30.6732C7.4332 31.8599 7.01326 34.1078 8.38474 34.7571C9.34932 35.214 10.3788 35.0571 11.4108 35.0527C12.4107 35.0479 13.4106 35.0654 14.4102 35.066C15.5383 35.067 16.6667 35.0686 17.7951 35.0682C18.9398 35.0676 20.4725 35.402 21.2179 34.307C21.8313 33.406 21.8752 32.2502 21.6321 31.2233C21.4985 30.6583 21.299 30.1089 21.0363 29.5909C20.9663 29.4529 20.2381 28.3868 20.2635 28.3496C20.602 27.8587 20.9405 27.3675 21.2787 26.8766C24.3429 22.4307 27.4075 17.9858 30.475 13.5424C31.5331 12.0096 32.5918 10.4772 33.6509 8.94505C34.1793 8.18025 34.7084 7.41546 35.2371 6.65067C35.5011 6.26891 35.7652 5.88747 36.0292 5.50571C36.2605 5.17167 36.5749 4.45618 36.9458 4.27994C37.7803 3.88418 40.2251 4.89489 40.2251 3.46488C40.2257 2.93519 40.527 1.19277 39.6525 1.19277ZM24.4438 4.20359C24.5249 4.19277 24.5287 4.12628 24.5039 4.04197C24.5039 4.04197 24.5119 4.19945 24.5077 4.20009C24.8574 4.20199 25.207 4.2039 25.5566 4.20518C26.3717 4.20868 27.1864 4.21122 28.0015 4.21249C29.3704 4.21504 30.7393 4.21536 32.1083 4.21567C33.167 4.21567 34.2258 4.21567 35.2845 4.21599C30.3083 11.4348 25.3317 18.6535 20.3555 25.8723C20.0068 26.3781 19.6578 26.8843 19.3088 27.3901C18.4066 26.6247 17.3335 26.0972 16.1847 25.8192C17.2043 23.1312 18.23 20.4456 19.2563 17.7602C19.8989 16.0795 20.5416 14.3988 21.1839 12.7178C21.733 11.2808 22.2821 9.84409 22.8309 8.40708C23.3456 7.05851 23.7248 5.45321 24.4438 4.20359C24.4565 4.20168 24.4177 4.24876 24.4438 4.20359ZM38.8011 2.88651C34.1112 2.97177 29.4159 2.87951 24.7253 2.8916C24.7848 2.34823 25.0606 2.51239 25.5728 2.51239C26.3924 2.51239 27.2119 2.51239 28.0317 2.51239C29.275 2.51239 30.5185 2.51239 31.7624 2.51239C33.0057 2.51239 34.249 2.51239 35.4929 2.51239C36.2729 2.51239 37.053 2.51239 37.8334 2.51239C38.3768 2.51207 38.6946 2.32946 38.8011 2.88651C38.79 2.8283 38.3901 2.89415 38.8011 2.88651ZM20.4274 32.1118C16.5738 32.1118 12.7199 32.1118 8.86639 32.1118C8.94942 30.5495 9.88378 29.1309 11.1118 28.2083C11.6981 27.768 12.362 27.4292 13.0651 27.2199C13.409 27.1175 13.7625 27.0459 14.1197 27.0099C14.2966 26.9918 14.4735 26.9829 14.6513 26.9829C14.6949 26.9807 14.5934 26.827 14.6714 26.8232C14.7286 27.0911 15.8978 27.1181 16.2557 27.2269C16.9546 27.4388 17.6141 27.7789 18.1963 28.2195C19.4154 29.1421 20.3443 30.5565 20.4274 32.1118ZM19.7669 33.5565C19.675 33.929 15.2453 33.6596 14.7296 33.6596C14.2753 33.6596 9.51506 33.7734 9.51506 33.5565C12.9321 33.5565 16.3495 33.5565 19.7669 33.5565Z" fill="#B91F2A"></path></g></g></g><defs><clipPath id="clip0_1_168"><rect width="47.72" height="35" fill="white" transform="translate(0 0.5)"></rect></clipPath><clipPath id="clip1_1_168"><rect width="47.72" height="35" fill="white" transform="translate(0 0.5)"></rect></clipPath><clipPath id="clip2_1_168"><rect width="47.72" height="34.9947" fill="white" transform="translate(0 0.502686)"></rect></clipPath></defs></svg> 