<?xml version="1.0" encoding="UTF-8"?> <svg xmlns="http://www.w3.org/2000/svg" width="48" height="36" viewBox="0 0 48 36" fill="none"><g clip-path="url(#clip0_1_140)"><g clip-path="url(#clip1_1_140)"><path d="M42.2483 8.20539C42.2483 9.04463 42.0367 10.2106 42.3065 11.0094C42.4315 11.3794 42.7414 11.507 43.0668 11.6641C43.5386 11.8919 43.9713 12.1941 44.3578 12.547C44.9877 13.1225 45.6911 13.9057 45.9551 14.7316C46.2606 15.6863 45.9408 16.719 45.4041 17.527C45.1611 17.8929 44.8662 18.2228 44.536 18.5126C44.2296 18.7817 43.8396 18.979 43.6045 19.3203C43.0665 20.1064 43.3977 21.5069 43.3977 22.4046C43.3977 24.7992 43.3865 27.1941 43.3853 29.5887C43.3846 30.3293 43.6926 31.4622 42.9523 31.9601C42.6434 32.1678 42.365 32.2852 42.2877 32.6899C42.2171 33.057 42.3272 33.4369 42.239 33.804C42.1003 34.3782 41.3263 34.3111 40.8727 34.326C40.2787 34.3461 38.911 34.5869 38.4762 34.0321C38.1074 33.5616 38.5525 32.6304 38.0435 32.2884C37.7187 32.0698 37.1263 32.193 36.7633 32.1942C36.1022 32.1971 35.4418 32.1996 34.7814 32.2022C32.4221 32.2114 30.0628 32.2171 27.7029 32.2178C22.9853 32.219 18.2677 32.2159 13.5498 32.2124C12.4897 32.2114 11.4307 32.212 10.371 32.1825C9.14076 32.1487 9.56419 32.8836 9.30841 33.804C9.07904 34.6286 7.40757 34.2882 6.77639 34.2755C6.3994 34.2681 5.76059 34.3903 5.51976 34.0127C5.28148 33.6392 5.45518 33.1906 5.38392 32.7856C5.24808 32.0126 4.31595 31.9878 4.24119 31.208C4.13366 30.0821 4.24278 28.8987 4.24946 27.768C4.26346 25.4403 4.28 23.1106 4.30227 20.7825C4.3064 20.3479 4.35126 19.9044 4.14066 19.5068C3.94309 19.1326 3.58329 18.9427 3.27947 18.6685C2.55031 18.0128 1.84469 17.1984 1.6888 16.2252C1.38371 14.3228 2.77364 12.6259 4.39771 11.7542C4.74479 11.5677 5.15805 11.4691 5.32825 11.074C5.50354 10.6668 5.41192 10.1438 5.40778 9.71493C5.39665 8.54516 5.33556 7.36806 5.35402 6.19892C5.3801 4.55258 6.61382 2.61579 8.12591 1.91717C8.95942 1.53191 9.92114 1.61176 10.8135 1.61303C12.0412 1.61462 13.2689 1.61558 14.4965 1.61621C16.8571 1.61717 19.2179 1.61653 21.5788 1.61558C26.2722 1.61367 30.9666 1.6458 35.66 1.62671C37.6468 1.61876 39.4226 1.39479 40.8711 2.98959C41.4806 3.66054 41.9794 4.40433 42.1675 5.30401C42.226 5.59065 42.3822 8.20539 42.2483 8.20539C42.2581 8.20539 42.2483 8.97464 42.2483 8.20539ZM23.8697 2.90211C23.8697 2.98228 11.2328 2.73986 10.0751 2.9231C9.20216 3.06149 8.40905 3.51579 7.81669 4.16828C7.13556 4.91844 7.05476 5.73699 7.06526 6.70889C7.07703 7.81727 7.05539 8.92564 7.0414 10.034C7.03662 10.4215 6.96791 10.8777 7.19983 11.2191C7.45879 11.6002 8.03079 11.7542 8.4046 12.0001C9.14298 12.4852 9.77989 13.1559 10.1807 13.9471C10.6411 14.8563 10.6153 15.7677 10.6007 16.7587C10.5908 17.4173 10.5351 18.3802 11.4692 18.1006C12.5935 17.7637 13.8049 17.7542 14.9683 17.6625C17.2792 17.4802 19.5825 17.2401 21.902 17.2019C24.2467 17.1634 26.5916 17.2159 28.9344 17.3158C30.8298 17.3966 32.7125 17.6142 34.5991 17.8054C35.0142 17.8474 35.4361 17.869 35.8404 17.9775C36.0994 18.0472 36.3749 18.1951 36.6517 18.1509C37.2275 18.0592 37.0509 16.9792 37.0446 16.6114C37.0315 15.8266 36.9768 15.0392 37.2746 14.2948C37.5462 13.6162 38.0171 13.0133 38.5366 12.5056C38.7971 12.2508 39.0841 12.0214 39.3997 11.8378C39.6898 11.6695 40.07 11.6015 40.3223 11.3785C40.8901 10.8764 40.608 9.56541 40.6057 8.90147C40.5994 7.36615 40.8991 5.53657 39.8874 4.24463C38.772 2.81939 37.2523 2.90306 35.6044 2.90179C31.6932 2.89956 27.7811 2.90211 23.8697 2.90211C28.3538 2.90211 23.8697 2.89702 23.8697 2.90211ZM23.7816 25.92C23.7816 25.9486 30.0847 25.9356 30.6777 25.9356C31.8265 25.9356 32.9766 25.9356 34.1257 25.9362C34.6754 25.9362 35.2248 25.9442 35.7749 25.9436C36.1226 25.9423 36.6981 26.0275 36.9571 25.7148C37.1658 25.4625 37.0662 25.0849 37.0433 24.7935C37.001 24.2562 37.0334 23.7099 37.0414 23.1704C37.049 22.6149 37.0589 22.0595 37.0694 21.504C37.077 21.0939 37.1645 20.5658 36.952 20.1869C36.5992 19.5573 35.2974 19.6569 34.7021 19.5898C33.5247 19.4571 32.3492 19.3092 31.1721 19.1708C28.8905 18.9029 26.641 18.8858 24.3485 18.8603C22.0338 18.8345 19.7378 18.8485 17.4313 19.0712C16.3191 19.1788 15.2101 19.3124 14.1011 19.4492C13.5466 19.5182 12.9921 19.5872 12.4373 19.6547C11.9782 19.7107 11.2808 19.6547 10.8883 19.9369C10.5969 20.1459 10.579 20.5445 10.5969 20.869C10.6271 21.4165 10.6077 21.9688 10.6083 22.5176C10.6089 23.0676 10.6083 23.6161 10.5991 24.1658C10.5921 24.6007 10.4785 25.1565 10.6385 25.5767C10.8832 26.2184 12.283 25.9327 12.7799 25.9264C13.9999 25.9098 15.2206 25.921 16.441 25.921C18.8874 25.9194 21.3345 25.92 23.7816 25.92C23.7816 25.9251 20.2993 25.92 23.7816 25.92ZM23.8691 27.6328C23.8691 27.6103 17.641 27.6204 17.0594 27.6204C15.9243 27.6207 14.7895 27.6211 13.6544 27.6214C13.0869 27.6217 12.5197 27.6217 11.9521 27.6223C11.4809 27.6223 10.9239 27.5329 10.6404 28.0108C10.3872 28.4384 10.4031 30.072 10.7531 30.4639C10.9894 30.7286 11.4189 30.6815 11.7339 30.6815C12.3965 30.6809 13.0589 30.6802 13.7216 30.6796C16.0961 30.6771 18.4707 30.6751 20.8452 30.6758C25.5956 30.6771 30.3459 30.6841 35.096 30.6751C35.7316 30.6736 36.8788 30.9249 37.0484 30.0653C37.1371 29.6151 37.057 29.1179 37.0706 28.6607C37.0811 28.3079 37.1581 27.8574 36.7519 27.6898C36.3822 27.5377 35.9091 27.6322 35.5204 27.6322C34.9525 27.6322 34.384 27.6322 33.8158 27.6322C32.5843 27.6328 31.3531 27.6328 30.1217 27.6328C28.0372 27.6328 25.9532 27.6328 23.8691 27.6328C27.7528 27.6328 23.8691 27.6287 23.8691 27.6328ZM41.85 24.3255C41.8274 24.3255 41.7921 19.3019 42.0065 18.7916C42.309 18.0739 43.0309 17.8585 43.4941 17.2884C43.9996 16.6665 44.3352 15.7623 44.0922 14.9705C43.641 13.4994 41.8815 12.4655 40.4285 13.1104C39.8269 13.377 39.3259 13.8659 39.0186 14.4446C38.6177 15.1992 38.737 16.0483 38.7408 16.8733C38.7574 21.0596 38.7265 25.2456 38.7128 29.4325C38.7103 30.2838 38.7857 30.7136 39.7083 30.7063C40.2488 30.7019 41.6979 30.9872 41.876 30.2355C42.065 29.4433 41.85 28.4129 41.8487 27.5975C41.8474 26.5063 41.85 25.4167 41.85 24.3255C41.85 25.7797 41.8474 24.3255 41.85 24.3255ZM8.98074 22.6502C8.84776 22.6502 8.91011 17.2356 8.91552 16.6579C8.92315 15.8123 8.98042 14.9915 8.50863 14.2464C8.13228 13.6518 7.53546 13.1314 6.84065 12.9647C5.3712 12.6125 3.57851 13.8341 3.51425 15.3974C3.48307 16.1594 3.75985 16.8672 4.29781 17.4068C4.87268 17.9832 5.61552 18.3188 5.78254 19.1972C5.96133 20.137 5.79686 21.2304 5.78636 22.1861C5.77491 23.2299 5.76504 24.2743 5.75582 25.3187C5.74659 26.3632 5.73769 27.4066 5.7291 28.4514C5.72464 28.9572 5.43991 30.2899 6.03196 30.5794C6.33069 30.7254 6.72708 30.679 7.04617 30.6799C7.51064 30.6818 8.02665 30.7515 8.48572 30.6732C9.17639 30.5552 8.94829 29.3772 8.95592 28.8987C8.98964 26.8162 8.98074 24.7331 8.98074 22.6502C8.98074 23.9931 8.95815 22.6502 8.98074 22.6502ZM39.7827 32.5311C39.8403 32.8731 40.3827 33.3923 40.5847 32.8324C40.6496 32.6523 40.636 32.3453 40.4324 32.2521C40.1778 32.136 39.9663 32.4093 39.7827 32.5311C39.9427 32.4249 39.8406 32.8808 39.7827 32.5311ZM7.82559 32.7468C7.76579 32.3791 7.18551 31.8946 7.0503 32.5025C6.89187 33.2151 7.50651 33.0026 7.82559 32.7468C7.76738 32.3883 7.72093 32.8302 7.82559 32.7468Z" fill="#B91F2A"></path><path d="M25.9808 6.76546C25.9773 5.82188 27.5291 5.86069 27.5164 6.79823C27.5015 7.85921 25.9852 7.82453 25.9808 6.76546C25.9827 7.25062 25.9792 6.33026 25.9808 6.76546Z" fill="#B91F2A"></path><path d="M32.1567 6.791C32.1507 7.8717 30.7449 7.84116 30.7382 6.77605C30.7324 5.79715 32.1628 5.81147 32.1567 6.791C32.1596 6.30935 32.1542 7.25834 32.1567 6.791Z" fill="#B91F2A"></path><path d="M17.4466 6.08594C18.4214 6.08371 18.2874 7.60853 17.3976 7.59739C16.3933 7.58498 16.4009 6.0888 17.4466 6.08594C17.8974 6.08498 16.9541 6.08721 17.4466 6.08594Z" fill="#B91F2A"></path><path d="M15.0693 9.67551C16.0733 9.67455 15.9941 11.0893 15.0286 11.0836C13.9702 11.0772 14.0004 9.67646 15.0693 9.67551C15.5338 9.67519 14.5314 9.67583 15.0693 9.67551Z" fill="#B91F2A"></path><path d="M26.7447 14.5646C25.7117 14.5776 25.7642 13.1737 26.7507 13.166C27.7802 13.1587 27.7964 14.5512 26.7447 14.5646C27.2588 14.5579 26.2439 14.5709 26.7447 14.5646Z" fill="#B91F2A"></path><path d="M24.3332 9.65512C25.4073 9.65576 25.4133 11.0695 24.3453 11.0645C23.417 11.0597 23.396 9.65448 24.3332 9.65512C24.8219 9.65544 23.9034 9.6548 24.3332 9.65512Z" fill="#B91F2A"></path><path d="M29.8835 10.3581C29.8854 11.3068 28.3392 11.2429 28.3167 10.361C28.2934 9.45878 29.8809 9.38943 29.8835 10.3581C29.8847 10.7908 29.8822 9.90131 29.8835 10.3581Z" fill="#B91F2A"></path><path d="M22.762 6.75475C22.7744 7.81604 21.3772 7.89303 21.3463 6.80406C21.3199 5.87129 22.7512 5.83025 22.762 6.75475C22.7674 7.21541 22.7569 6.32304 22.762 6.75475Z" fill="#B91F2A"></path><path d="M18.149 13.8517C18.1573 14.801 16.5781 14.7933 16.5625 13.9108C16.5469 13.0417 18.1411 12.8877 18.149 13.8517Z" fill="#B91F2A"></path><path d="M19.7702 9.65349C20.7021 9.67353 20.5961 11.1354 19.6894 11.101C18.7334 11.0647 18.8225 9.63313 19.7702 9.65349C20.1743 9.66208 19.3408 9.64426 19.7702 9.65349Z" fill="#B91F2A"></path><path d="M33.812 9.66208C34.7406 9.67672 34.7639 11.0927 33.8263 11.0899C32.918 11.087 32.8646 9.64681 33.812 9.66208C34.2412 9.66877 33.3981 9.6554 33.812 9.66208Z" fill="#B91F2A"></path><path d="M32.1443 13.8568C32.1593 14.787 30.7327 14.8004 30.7187 13.8864C30.7038 12.9654 32.1293 12.9234 32.1443 13.8568C32.151 14.2907 32.1376 13.4346 32.1443 13.8568Z" fill="#B91F2A"></path><path d="M22.035 14.5744C21.2143 14.5763 21.1455 13.3353 21.9183 13.1759C22.9303 12.9675 23.0642 14.5722 22.035 14.5744C22.4779 14.5735 21.6282 14.5754 22.035 14.5744Z" fill="#B91F2A"></path><path d="M41.396 14.8716C42.4363 14.8659 42.4198 16.3563 41.4313 16.3865C40.4753 16.4158 40.3863 14.877 41.396 14.8716C41.892 14.869 40.9376 14.8741 41.396 14.8716Z" fill="#B91F2A"></path><path d="M6.99784 15.6205C6.93294 16.6815 5.39254 16.5568 5.46539 15.5082C5.52839 14.6034 7.05415 14.6957 6.99784 15.6205C7.02425 15.1869 6.96953 16.0811 6.99784 15.6205Z" fill="#B91F2A"></path></g></g><defs><clipPath id="clip0_1_140"><rect width="47.72" height="35" fill="white" transform="translate(0 0.5)"></rect></clipPath><clipPath id="clip1_1_140"><rect width="47.72" height="35" fill="white" transform="translate(0 0.5)"></rect></clipPath></defs></svg> 